<svg width="32" height="32" viewBox="0 0 32 32" fill="none" xmlns="http://www.w3.org/2000/svg">
<g id="Face" clip-path="url(#clip0_32_1218)">
<path id="Vector" d="M12 15.6666C11.08 15.6666 10.3333 16.4133 10.3333 17.3333C10.3333 18.2533 11.08 19 12 19C12.92 19 13.6666 18.2533 13.6666 17.3333C13.6666 16.4133 12.92 15.6666 12 15.6666ZM20 15.6666C19.08 15.6666 18.3333 16.4133 18.3333 17.3333C18.3333 18.2533 19.08 19 20 19C20.92 19 21.6666 18.2533 21.6666 17.3333C21.6666 16.4133 20.92 15.6666 20 15.6666ZM16 2.66663C8.63996 2.66663 2.66663 8.63996 2.66663 16C2.66663 23.36 8.63996 29.3333 16 29.3333C23.36 29.3333 29.3333 23.36 29.3333 16C29.3333 8.63996 23.36 2.66663 16 2.66663ZM16 26.6666C10.12 26.6666 5.33329 21.88 5.33329 16C5.33329 15.6133 5.35996 15.2266 5.39996 14.8533C8.54663 13.4533 11.04 10.88 12.3466 7.69329C14.76 11.1066 18.7333 13.3333 23.2266 13.3333C24.2666 13.3333 25.2666 13.2133 26.2266 12.9866C26.5066 13.9333 26.6666 14.9466 26.6666 16C26.6666 21.88 21.88 26.6666 16 26.6666Z" fill="black"/>
</g>
<defs>
<clipPath id="clip0_32_1218">
<rect width="32" height="32" fill="white"/>
</clipPath>
</defs>
</svg>
